<svg width="1604" height="419" viewBox="0 0 1604 419" fill="none" xmlns="http://www.w3.org/2000/svg">
<rect y="9" width="400" height="400" rx="200" fill="#34495E"/>
<path d="M521.3 150H476V114H607.4V150H562.1V324H521.3V150ZM668.579 202.2H646.079C643.079 205.8 640.579 210.8 638.579 217.2C636.779 223.6 635.879 229.8 635.879 235.8H678.779C679.179 229.8 678.379 223.6 676.379 217.2C674.379 210.6 671.779 205.6 668.579 202.2ZM709.379 292.5V324H633.179C619.179 314.6 609.279 303 603.479 289.2C597.879 275.2 595.079 261.1 595.079 246.9C595.079 214.1 607.479 188.7 632.279 170.7H680.879C694.279 180.5 703.379 190.9 708.179 201.9C712.979 212.9 715.379 224 715.379 235.2C715.379 246.4 714.479 256 712.679 264H637.979C638.579 268.6 640.279 273.9 643.079 279.9C646.079 285.7 649.279 289.9 652.679 292.5H709.379ZM772.709 246C772.709 254.4 774.009 263 776.609 271.8C779.209 280.4 782.809 287.3 787.409 292.5H832.409V324H766.709C743.109 305.2 731.309 279.2 731.309 246C731.309 212.8 743.909 187.7 769.109 170.7H832.409V202.2H787.409C777.609 212.4 772.709 227 772.709 246ZM922.304 170.7H950.804C959.604 181.9 965.604 193.1 968.804 204.3C972.004 215.5 973.604 229.5 973.604 246.3V324H933.704V243.3C933.704 224.3 931.104 210.6 925.904 202.2H892.304V324H852.404V114H892.304V181.5C896.704 177.5 900.804 174.7 904.604 173.1C908.604 171.5 914.504 170.7 922.304 170.7ZM1067.05 114H1139.05V150H1081.45L1080.55 151.8L1128.55 239.4C1138.35 257 1143.25 270.4 1143.25 279.6C1143.25 299.8 1136.55 314.6 1123.15 324H1043.65V289.2H1105.75L1106.65 287.4L1052.65 190.5C1044.85 176.5 1040.95 165.1 1040.95 156.3C1040.95 135.5 1049.65 121.4 1067.05 114ZM1165.8 257.1V202.2H1145.1V170.7H1165.8V129H1205.7V170.7H1230.3V202.2H1205.7V266.7C1205.7 278.9 1207.8 287.5 1212 292.5H1230.3V324H1187.7C1177.1 314.2 1170.7 303.6 1168.5 292.2C1166.7 282.6 1165.8 270.9 1165.8 257.1ZM1338.53 324H1273.13C1253.13 305.4 1243.13 280 1243.13 247.8C1243.13 231.6 1245.33 217.5 1249.73 205.5C1254.33 193.5 1261.53 181.9 1271.33 170.7H1341.53C1351.93 182.7 1359.03 194.4 1362.83 205.8C1366.63 217 1368.53 231 1368.53 247.8C1368.53 280 1358.53 305.4 1338.53 324ZM1294.43 292.5H1317.23C1324.43 278.5 1328.03 262.6 1328.03 244.8C1328.03 227 1324.33 212.8 1316.93 202.2H1294.43C1287.23 212.4 1283.63 226.9 1283.63 245.7C1283.63 264.3 1287.23 279.9 1294.43 292.5ZM1390.3 324V170.7H1418.8L1426.3 186.9C1434.3 176.1 1444.4 170.7 1456.6 170.7H1468.3V210.9H1430.2V324H1390.3ZM1549.24 202.2H1526.74C1523.74 205.8 1521.24 210.8 1519.24 217.2C1517.44 223.6 1516.54 229.8 1516.54 235.8H1559.44C1559.84 229.8 1559.04 223.6 1557.04 217.2C1555.04 210.6 1552.44 205.6 1549.24 202.2ZM1590.04 292.5V324H1513.84C1499.84 314.6 1489.94 303 1484.14 289.2C1478.54 275.2 1475.74 261.1 1475.74 246.9C1475.74 214.1 1488.14 188.7 1512.94 170.7H1561.54C1574.94 180.5 1584.04 190.9 1588.84 201.9C1593.64 212.9 1596.04 224 1596.04 235.2C1596.04 246.4 1595.14 256 1593.34 264H1518.64C1519.24 268.6 1520.94 273.9 1523.74 279.9C1526.74 285.7 1529.94 289.9 1533.34 292.5H1590.04Z" fill="black"/>
<path d="M121.3 150H76V114H207.4V150H162.1V324H121.3V150ZM244.002 114H316.002V150H258.402L257.502 151.8L305.502 239.4C315.302 257 320.202 270.4 320.202 279.6C320.202 299.8 313.502 314.6 300.102 324H220.602V289.2H282.702L283.602 287.4L229.602 190.5C221.802 176.5 217.902 165.1 217.902 156.3C217.902 135.5 226.602 121.4 244.002 114Z" fill="white"/>
</svg>
